<?xml version="1.0" encoding="utf-8"?>
<!-- Generator: Adobe Illustrator 25.2.3, SVG Export Plug-In . SVG Version: 6.00 Build 0)  -->
<svg version="1.1" id="Capa_1" xmlns="http://www.w3.org/2000/svg" xmlns:xlink="http://www.w3.org/1999/xlink" x="0px" y="0px"
	 viewBox="0 0 480 480" style="enable-background:new 0 0 480 480;" xml:space="preserve">
<style type="text/css">
	.st0{fill:#FFFFFF;}
</style>
<g>
	<g>
		<path class="st0" d="M416,0H64c-4.4,0-8,3.6-8,8v464c0,4.4,3.6,8,8,8h352c4.4,0,8-3.6,8-8V8C424,3.6,420.4,0,416,0z M408,464H72
			V16h336V464z"/>
	</g>
</g>
<g>
	<g>
		<path class="st0" d="M381.6,386.8c-2.8-3.1-7.6-3.4-10.8-0.8l-47,40.2l-4.2-12.7c-1.4-4.2-5.9-6.5-10.1-5.1s-6.5,5.9-5.1,10.1
			l8,24c0.8,2.5,2.9,4.5,5.4,5.2c0.7,0.2,1.4,0.3,2.2,0.3c1.9,0,3.8-0.7,5.2-1.9l56-48C384.4,395.1,384.6,390,381.6,386.8z"/>
	</g>
</g>
<g>
	<g>
		<path class="st0" d="M240,32c-17.7,0-32,14.3-32,32s14.3,32,32,32s32-14.3,32-32S257.7,32,240,32z M240,80c-8.8,0-16-7.2-16-16
			s7.2-16,16-16s16,7.2,16,16S248.8,80,240,80z"/>
	</g>
</g>
<g>
	<g>
		<path class="st0" d="M368,128H112c-4.4,0-8,3.6-8,8s3.6,8,8,8h256c4.4,0,8-3.6,8-8S372.4,128,368,128z"/>
	</g>
</g>
<g>
	<g>
		<path class="st0" d="M368,176H112c-4.4,0-8,3.6-8,8s3.6,8,8,8h256c4.4,0,8-3.6,8-8S372.4,176,368,176z"/>
	</g>
</g>
<g>
	<g>
		<path class="st0" d="M368,216H112c-4.4,0-8,3.6-8,8s3.6,8,8,8h256c4.4,0,8-3.6,8-8S372.4,216,368,216z"/>
	</g>
</g>
<g>
	<g>
		<path class="st0" d="M368,264H112c-4.4,0-8,3.6-8,8s3.6,8,8,8h256c4.4,0,8-3.6,8-8S372.4,264,368,264z"/>
	</g>
</g>
<g>
	<g>
		<path class="st0" d="M368,304H112c-4.4,0-8,3.6-8,8s3.6,8,8,8h256c4.4,0,8-3.6,8-8S372.4,304,368,304z"/>
	</g>
</g>
<g>
	<g>
		<path class="st0" d="M176,400h-64c-4.4,0-8,3.6-8,8s3.6,8,8,8h64c4.4,0,8-3.6,8-8S180.4,400,176,400z"/>
	</g>
</g>
<g>
	<g>
		<path class="st0" d="M168,432h-48c-4.4,0-8,3.6-8,8s3.6,8,8,8h48c4.4,0,8-3.6,8-8S172.4,432,168,432z"/>
	</g>
</g>
</svg>
