<svg xmlns="http://www.w3.org/2000/svg" width="26.442" height="26.442" viewBox="0 0 26.442 26.442">
  <path id="Icon_metro-copyright" data-name="Icon metro-copyright" d="M24.567,20.692v1.876a2.18,2.18,0,0,1-.628,1.532,4.175,4.175,0,0,1-1.618,1.041,11.833,11.833,0,0,1-2.031.559,11.3,11.3,0,0,1-2.023.189,7.958,7.958,0,0,1-5.9-2.393A8.131,8.131,0,0,1,10,17.542,8,8,0,0,1,18.18,9.365a12.148,12.148,0,0,1,1.3.077,11.108,11.108,0,0,1,1.6.31,8.212,8.212,0,0,1,1.592.585,3.428,3.428,0,0,1,1.188.973,2.213,2.213,0,0,1,.482,1.394v1.876a.243.243,0,0,1-.275.275H22.036a.243.243,0,0,1-.275-.275V13.376q0-.74-1.128-1.162a6.7,6.7,0,0,0-2.367-.422,5.23,5.23,0,0,0-3.934,1.575,5.634,5.634,0,0,0-1.523,4.088,6.064,6.064,0,0,0,1.575,4.3,5.244,5.244,0,0,0,4.02,1.7,7.294,7.294,0,0,0,2.376-.413q1.205-.413,1.205-1.136V20.692a.268.268,0,0,1,.077-.2.248.248,0,0,1,.181-.077h2.049a.277.277,0,0,1,.189.077.255.255,0,0,1,.086.2ZM17.991,6.61a10.709,10.709,0,0,0-4.278.878A10.865,10.865,0,0,0,7.851,13.35a10.861,10.861,0,0,0,0,8.556,10.865,10.865,0,0,0,5.862,5.862,10.861,10.861,0,0,0,8.556,0,10.865,10.865,0,0,0,5.862-5.862,10.861,10.861,0,0,0,0-8.556,10.865,10.865,0,0,0-5.862-5.862,10.709,10.709,0,0,0-4.278-.878ZM31.211,17.628a12.933,12.933,0,0,1-1.773,6.636,13.161,13.161,0,0,1-4.811,4.811,12.933,12.933,0,0,1-6.636,1.773,12.933,12.933,0,0,1-6.636-1.773,13.161,13.161,0,0,1-4.811-4.811A12.933,12.933,0,0,1,4.77,17.628a12.933,12.933,0,0,1,1.773-6.636A13.161,13.161,0,0,1,11.354,6.18a12.933,12.933,0,0,1,6.636-1.773A12.933,12.933,0,0,1,24.627,6.18a13.161,13.161,0,0,1,4.811,4.811A12.933,12.933,0,0,1,31.211,17.628Z" transform="translate(-4.77 -4.407)" fill="#fff"/>
</svg>
