<svg xmlns="http://www.w3.org/2000/svg" width="16.144" height="16.144" viewBox="0 0 16.144 16.144">
  <path id="Icon_ionic-ios-checkbox" data-name="Icon ionic-ios-checkbox" d="M19.3,4.5H5.845A1.344,1.344,0,0,0,4.5,5.845V19.3a1.344,1.344,0,0,0,1.345,1.345H19.3A1.344,1.344,0,0,0,20.644,19.3V5.845A1.344,1.344,0,0,0,19.3,4.5Zm-2.207,5.655L11.471,15.8h0a.759.759,0,0,1-.488.231.736.736,0,0,1-.492-.24L8.132,13.438a.168.168,0,0,1,0-.24l.748-.748a.163.163,0,0,1,.235,0l1.867,1.867L16.112,9.15a.166.166,0,0,1,.118-.05h0a.153.153,0,0,1,.118.05l.736.761A.166.166,0,0,1,17.092,10.155Z" transform="translate(-4.5 -4.5)" fill="#5905d4"/>
</svg>
