<svg xmlns="http://www.w3.org/2000/svg" width="20.963" height="20.963" viewBox="0 0 20.963 20.963">
  <path id="Icon_awesome-phone-alt" data-name="Icon awesome-phone-alt" d="M20.365,14.814l-4.586-1.965a.983.983,0,0,0-1.146.283L12.6,15.612A15.176,15.176,0,0,1,5.347,8.357L7.828,6.326A.98.98,0,0,0,8.111,5.18L6.146.594A.989.989,0,0,0,5.02.025L.762,1.008A.983.983,0,0,0,0,1.965a19,19,0,0,0,19,19,.983.983,0,0,0,.958-.762l.983-4.258a1,1,0,0,0-.574-1.13Z" transform="translate(0 0)" fill="#6aa5f3"/>
</svg>
