<svg xmlns="http://www.w3.org/2000/svg" width="30.381" height="27" viewBox="0 0 30.381 27">
  <path id="Icon_awesome-edit" data-name="Icon awesome-edit" d="M21.235,4.39l4.758,4.758a.516.516,0,0,1,0,.728L14.473,21.395l-4.895.543A1.026,1.026,0,0,1,8.444,20.8l.543-4.895L20.507,4.39A.516.516,0,0,1,21.235,4.39ZM29.78,3.182,27.206.608a2.063,2.063,0,0,0-2.912,0L22.427,2.475a.516.516,0,0,0,0,.728l4.758,4.758a.516.516,0,0,0,.728,0L29.78,6.094a2.063,2.063,0,0,0,0-2.912Zm-9.526,15.08v5.369H3.376V6.753H15.5a.649.649,0,0,0,.448-.185l2.11-2.11a.633.633,0,0,0-.448-1.081H2.532A2.532,2.532,0,0,0,0,5.909V24.475a2.532,2.532,0,0,0,2.532,2.532H21.1a2.532,2.532,0,0,0,2.532-2.532V16.152a.634.634,0,0,0-1.081-.448l-2.11,2.11A.649.649,0,0,0,20.254,18.262Z" transform="translate(0 -0.007)" fill="#919191"/>
</svg>
