<svg xmlns="http://www.w3.org/2000/svg" width="155.48" height="165.846" viewBox="0 0 155.48 165.846">
  <path id="Icon_metro-calendar" data-name="Icon metro-calendar" d="M54.4,64.12H75.128V84.851H54.4Zm31.1,0h20.731V84.851H85.494Zm31.1,0H137.32V84.851H116.59ZM23.3,126.312H44.032v20.731H23.3Zm31.1,0H75.128v20.731H54.4Zm31.1,0h20.731v20.731H85.494Zm-31.1-31.1H75.128v20.731H54.4Zm31.1,0h20.731v20.731H85.494Zm31.1,0H137.32v20.731H116.59Zm-93.288,0H44.032v20.731H23.3ZM137.32,1.928V12.293H116.59V1.928H44.032V12.293H23.3V1.928H2.571V167.774h155.48V1.928H137.32Zm10.365,155.48H12.936V43.389h134.75Z" transform="translate(-2.571 -1.928)" fill="#919191"/>
</svg>
