<svg xmlns="http://www.w3.org/2000/svg" width="22.75" height="26" viewBox="0 0 22.75 26">
  <path id="Icon_awesome-birthday-cake" data-name="Icon awesome-birthday-cake" d="M22.75,19.5c-1.423,0-1.587-1.625-3.783-1.625s-2.378,1.625-3.8,1.625-1.6-1.625-3.8-1.625c-2.176,0-2.4,1.625-3.783,1.625-1.429,0-1.584-1.625-3.8-1.625S1.427,19.5,0,19.5V15.438A2.438,2.438,0,0,1,2.438,13H3.25V5.688H6.5V13H9.75V5.688H13V13h3.25V5.688H19.5V13h.813a2.438,2.438,0,0,1,2.438,2.438Zm0,6.5H0V21.125c2.2,0,2.375-1.625,3.8-1.625s1.587,1.625,3.8,1.625c2.176,0,2.4-1.625,3.783-1.625,1.429,0,1.584,1.625,3.8,1.625s2.375-1.625,3.8-1.625c1.4,0,1.587,1.625,3.783,1.625ZM4.875,4.875A1.62,1.62,0,0,1,3.25,3.25C3.25,1.676,4.875,2.082,4.875,0,5.484,0,6.5,1.5,6.5,2.844S5.776,4.875,4.875,4.875Zm6.5,0A1.62,1.62,0,0,1,9.75,3.25c0-1.574,1.625-1.168,1.625-3.25C11.984,0,13,1.5,13,2.844S12.276,4.875,11.375,4.875Zm6.5,0A1.62,1.62,0,0,1,16.25,3.25c0-1.574,1.625-1.168,1.625-3.25C18.484,0,19.5,1.5,19.5,2.844S18.776,4.875,17.875,4.875Z" fill="#5905d4"/>
</svg>
