<svg xmlns="http://www.w3.org/2000/svg" width="36.087" height="28.871" viewBox="0 0 36.087 28.871">
  <path id="Icon_awesome-user-edit" data-name="Icon awesome-user-edit" d="M12.631,14.435A7.218,7.218,0,1,0,5.413,7.218,7.217,7.217,0,0,0,12.631,14.435Zm5.052,1.8h-.942a9.816,9.816,0,0,1-8.221,0H7.579A7.581,7.581,0,0,0,0,23.818v2.346a2.707,2.707,0,0,0,2.707,2.707h15.5a2.708,2.708,0,0,1-.147-1.2l.383-3.434.068-.626.445-.445,4.359-4.359a7.5,7.5,0,0,0-5.633-2.566Zm2.554,8.193-.383,3.44a.9.9,0,0,0,.992.992l3.434-.383,7.776-7.776-4.043-4.043-7.776,7.77Zm15.456-9.27-2.137-2.137a1.351,1.351,0,0,0-1.906,0l-2.131,2.131-.231.231,4.049,4.043,2.357-2.357a1.358,1.358,0,0,0,0-1.912Z" fill="#fff"/>
</svg>
