<svg xmlns="http://www.w3.org/2000/svg" width="26.882" height="18.611" viewBox="0 0 26.882 18.611">
  <g id="Icon_ionic-ios-mail" data-name="Icon ionic-ios-mail" transform="translate(-3.375 -7.875)">
    <path id="Path_19" data-name="Path 19" d="M30.037,10.354l-6.953,7.082a.125.125,0,0,0,0,.181L27.95,22.8a.839.839,0,0,1,0,1.189.842.842,0,0,1-1.189,0l-4.846-5.163a.133.133,0,0,0-.187,0l-1.183,1.2a5.2,5.2,0,0,1-3.709,1.564,5.307,5.307,0,0,1-3.787-1.609l-1.137-1.157a.133.133,0,0,0-.187,0L6.877,23.988a.842.842,0,0,1-1.189,0,.839.839,0,0,1,0-1.189l4.866-5.183a.138.138,0,0,0,0-.181l-6.96-7.082a.127.127,0,0,0-.22.09V24.615a2.074,2.074,0,0,0,2.068,2.068H28.189a2.074,2.074,0,0,0,2.068-2.068V10.444A.129.129,0,0,0,30.037,10.354Z" transform="translate(0 -0.197)" fill="#9b61f0"/>
    <path id="Path_20" data-name="Path 20" d="M16.885,19.707a3.513,3.513,0,0,0,2.527-1.06L29.55,8.327a2.031,2.031,0,0,0-1.279-.452H5.505a2.018,2.018,0,0,0-1.279.452l10.139,10.32A3.514,3.514,0,0,0,16.885,19.707Z" transform="translate(-0.069)" fill="#9b61f0"/>
  </g>
</svg>
