<svg xmlns="http://www.w3.org/2000/svg" width="276.5" height="49.475" viewBox="0 0 276.5 49.475">
  <g id="Group_3" data-name="Group 3" transform="translate(-584.829 -703.069)">
    <g id="Group_1" data-name="Group 1" transform="translate(584.829 703.069)">
      <path id="Path_1" data-name="Path 1" d="M625.328,670.358,613.88,684.344H584.829V670.358Z" transform="translate(-584.829 -670.358)" fill="#fff"/>
      <path id="Path_2" data-name="Path 2" d="M610.8,705.747l-11.448,13.987H584.829V705.747Z" transform="translate(-584.829 -688.003)" fill="#fff"/>
      <path id="Path_3" data-name="Path 3" d="M596.277,741.136l-11.448,13.987V741.136Z" transform="translate(-584.829 -705.647)" fill="#fff"/>
    </g>
    <g id="Group_2" data-name="Group 2" transform="translate(637.785 703.069)">
      <path id="Path_4" data-name="Path 4" d="M642.431,743.874H645.5q.032-6.77.221-8a6.6,6.6,0,0,1,2.388-4.508,8.926,8.926,0,0,1,5.773-1.661,17.966,17.966,0,0,1,6.074,1.234v6.579a11.575,11.575,0,0,0-3.068-.538,3.23,3.23,0,0,0-2.214.632,2.739,2.739,0,0,0-.506,1.961l-.031,4.3h5.472v7.308h-5.472v27.11H645.5v-27.11h-3.068Z" transform="translate(-642.431 -729.702)" fill="#fff"/>
      <path id="Path_5" data-name="Path 5" d="M678.63,729.7a5.278,5.278,0,0,1,3.9,1.645,5.46,5.46,0,0,1,1.625,3.986,5.4,5.4,0,0,1-1.609,3.939,5.219,5.219,0,0,1-3.849,1.629,5.294,5.294,0,0,1-3.927-1.661,5.555,5.555,0,0,1-1.624-4.034,5.5,5.5,0,0,1,5.488-5.5Zm-4.318,14.172h8.636v34.418h-8.636Z" transform="translate(-650.107 -729.702)" fill="#fff"/>
      <path id="Path_6" data-name="Path 6" d="M700.478,731.684h8.636v12.685h5.125V751.8h-5.125v26.984h-8.636V751.8H696.05v-7.434h4.428Z" transform="translate(-655.833 -730.197)" fill="#fff"/>
      <path id="Path_7" data-name="Path 7" d="M725.431,748.6h8.8l8.7,20.309L751.6,748.6h8.754l-14.646,34.418h-5.6Z" transform="translate(-663.176 -734.424)" fill="#fff"/>
      <path id="Path_8" data-name="Path 8" d="M809.64,768.009H781.9a9.236,9.236,0,0,0,3.211,5.837,10.073,10.073,0,0,0,6.658,2.167,11.517,11.517,0,0,0,8.32-3.385l7.276,3.417a17.165,17.165,0,0,1-6.517,5.709,20.375,20.375,0,0,1-9.016,1.851q-8.1,0-13.191-5.109a17.383,17.383,0,0,1-5.093-12.8,17.971,17.971,0,0,1,5.077-13.081,17.052,17.052,0,0,1,12.732-5.2q8.13,0,13.223,5.2t5.094,13.745Zm-8.635-6.8a8.662,8.662,0,0,0-3.375-4.682,9.782,9.782,0,0,0-5.846-1.8,10.336,10.336,0,0,0-6.338,2.025,11.292,11.292,0,0,0-3.168,4.46Z" transform="translate(-675.202 -734.129)" fill="#fff"/>
      <path id="Path_9" data-name="Path 9" d="M826.993,748.3h7.4v4.334a9.256,9.256,0,0,1,3.2-3.891,7.707,7.707,0,0,1,4.365-1.329,8.083,8.083,0,0,1,3.512.886l-2.689,7.434a5.949,5.949,0,0,0-2.5-.759q-1.994,0-3.369,2.468t-1.376,9.68l.031,1.677v13.919h-8.573Z" transform="translate(-688.561 -734.129)" fill="#fff"/>
      <path id="Path_10" data-name="Path 10" d="M877.911,753.109l-5.346,5.346q-3.258-3.226-5.916-3.226a3.726,3.726,0,0,0-2.278.617,1.854,1.854,0,0,0-.822,1.534,1.887,1.887,0,0,0,.522,1.282,9.707,9.707,0,0,0,2.578,1.6l3.163,1.582q5,2.467,6.864,5.03a10.476,10.476,0,0,1-1.5,13.666q-3.369,3.068-9.031,3.068a14.356,14.356,0,0,1-12.021-5.884l5.315-5.789A12.26,12.26,0,0,0,863,774.794a7.876,7.876,0,0,0,3.622,1.091,4.321,4.321,0,0,0,2.752-.823,2.383,2.383,0,0,0,1.044-1.9q0-1.993-3.764-3.891l-2.91-1.455q-8.351-4.206-8.352-10.534a9.141,9.141,0,0,1,3.148-6.976,11.432,11.432,0,0,1,8.051-2.894,13.966,13.966,0,0,1,11.325,5.694Z" transform="translate(-695.342 -734.129)" fill="#fff"/>
      <path id="Path_11" data-name="Path 11" d="M928.4,768.009H900.654a9.236,9.236,0,0,0,3.211,5.837,10.074,10.074,0,0,0,6.659,2.167,11.515,11.515,0,0,0,8.32-3.385l7.276,3.417a17.165,17.165,0,0,1-6.516,5.709,20.376,20.376,0,0,1-9.016,1.851q-8.1,0-13.191-5.109a17.383,17.383,0,0,1-5.093-12.8,17.972,17.972,0,0,1,5.077-13.081,17.053,17.053,0,0,1,12.732-5.2q8.13,0,13.224,5.2t5.093,13.745Zm-8.636-6.8a8.662,8.662,0,0,0-3.375-4.682,9.782,9.782,0,0,0-5.846-1.8,10.333,10.333,0,0,0-6.337,2.025,11.286,11.286,0,0,0-3.169,4.46Z" transform="translate(-704.885 -734.129)" fill="#fff"/>
    </g>
  </g>
</svg>
